HIERARCHY
ROOT Hips
{
	OFFSET 45.733799 11.391583 96.812401
	CHANNELS 6 Xposition Yposition Zposition Xrotation Yrotation Zrotation
	JOINT spine
	{
		OFFSET 0.000000 -0.458068 7.965683
		CHANNELS 3 Xrotation Yrotation Zrotation
		JOINT spine1
		{
			OFFSET 0.000000 -0.000002 10.243103
			CHANNELS 3 Xrotation Yrotation Zrotation
			JOINT spine2
			{
				OFFSET 0.000000 -0.000001 9.814751
				CHANNELS 3 Xrotation Yrotation Zrotation
				JOINT Neck
				{
					OFFSET 0.000000 -1.201385 25.198608
					CHANNELS 3 Xrotation Yrotation Zrotation
					JOINT Head
					{
						OFFSET 0.000000 -0.000001 7.613144
						CHANNELS 3 Xrotation Yrotation Zrotation
						End Site
						{
							OFFSET 0.000000 6.077327 18.428101
						}
					}
				}
				JOINT RightShoulder
				{
					OFFSET -4.132702 0.575449 10.599197
					CHANNELS 3 Xrotation Yrotation Zrotation
					JOINT RightArm
					{
						OFFSET 0.000000 -0.000003 13.901794
						CHANNELS 3 Xrotation Yrotation Zrotation
						JOINT RightArmRoll
						{
							OFFSET 0.000000 -0.000001 7.017883
							CHANNELS 3 Xrotation Yrotation Zrotation
							JOINT RightForeArm
							{
								OFFSET 0.000000 -0.000003 20.440598
								CHANNELS 3 Xrotation Yrotation Zrotation
								JOINT RightForeArmRoll
								{
									OFFSET 0.000000 -0.000002 7.875153
									CHANNELS 3 Xrotation Yrotation Zrotation
									JOINT RightHand
									{
										OFFSET 0.000000 -0.000002 15.803696
										CHANNELS 3 Xrotation Yrotation Zrotation
										End Site
										{
											OFFSET 0.000000 0.000000 0.100006
										}
									}
								}
							}
						}
					}
				}
				JOINT LeftShoulder
				{
					OFFSET 4.132702 0.575449 10.599197
					CHANNELS 3 Xrotation Yrotation Zrotation
					JOINT LeftArm
					{
						OFFSET 0.000000 -0.000003 13.901794
						CHANNELS 3 Xrotation Yrotation Zrotation
						JOINT LeftArmRoll
						{
							OFFSET 0.000000 -0.000001 7.017883
							CHANNELS 3 Xrotation Yrotation Zrotation
							JOINT LeftForeArm
							{
								OFFSET 0.000000 -0.000003 20.440598
								CHANNELS 3 Xrotation Yrotation Zrotation
								JOINT LeftForeArmRoll
								{
									OFFSET 0.000000 -0.000002 7.875153
									CHANNELS 3 Xrotation Yrotation Zrotation
									JOINT LeftHand
									{
										OFFSET 0.000000 -0.000002 15.803696
										CHANNELS 3 Xrotation Yrotation Zrotation
										End Site
										{
											OFFSET 0.000000 0.000000 0.100006
										}
									}
								}
							}
						}
					}
				}
			}
		}
	}
	JOINT RightUpLeg
	{
		OFFSET -7.060482 1.086101 -1.294701
		CHANNELS 3 Xrotation Yrotation Zrotation
		JOINT RightUpLegRoll
		{
			OFFSET 0.000000 -0.000003 18.530800
			CHANNELS 3 Xrotation Yrotation Zrotation
			JOINT RightLeg
			{
				OFFSET 0.000000 0.000003 -22.947601
				CHANNELS 3 Xrotation Yrotation Zrotation
				JOINT RightLegRoll
				{
					OFFSET 0.000000 -0.000003 23.022598
					CHANNELS 3 Xrotation Yrotation Zrotation
					JOINT RightFoot
					{
						OFFSET 0.000000 -0.000004 19.162498
						CHANNELS 3 Xrotation Yrotation Zrotation
						JOINT RightToeBase
						{
							OFFSET 0.000000 -0.000003 16.018799
							CHANNELS 3 Xrotation Yrotation Zrotation
							End Site
							{
								OFFSET 0.006790 0.894206 7.757812
							}
						}
					}
				}
			}
		}
	}
	JOINT LeftUpLeg
	{
		OFFSET 7.060482 1.086101 -1.294701
		CHANNELS 3 Xrotation Yrotation Zrotation
		JOINT LeftUpLegRoll
		{
			OFFSET 0.000000 -0.000003 18.530899
			CHANNELS 3 Xrotation Yrotation Zrotation
			JOINT LeftLeg
			{
				OFFSET 0.000000 -0.000004 22.947495
				CHANNELS 3 Xrotation Yrotation Zrotation
				JOINT LeftLegRoll
				{
					OFFSET 0.000000 -0.000004 23.235504
					CHANNELS 3 Xrotation Yrotation Zrotation
					JOINT LeftFoot
					{
						OFFSET 0.000000 -0.000004 18.949600
						CHANNELS 3 Xrotation Yrotation Zrotation
						JOINT LeftToeBase
						{
							OFFSET 0.000000 -0.000002 16.018799
							CHANNELS 3 Xrotation Yrotation Zrotation
							End Site
							{
								OFFSET -0.030430 0.894205 7.757812
							}
						}
					}
				}
			}
		}
	}
}
MOTION
Frames: 6
Frame Time: 0.041667
53.053699 -4.006884 96.710693 -6.293135 0.423838 1.911410 -0.502038 -0.195999 -0.282819 2.972796 -0.382291 -0.553855 4.617855 -0.388907 -0.549059 23.471557 4.753816 -4.516724 17.355536 -9.112098 -2.023049 -19.996518 -77.365464 -23.498340 98.244785 -67.931532 99.193348 -0.000001 -0.000001 -0.000000 17.522020 -15.340885 1.647955 0.000001 0.000027 -3.000001 -5.000225 -7.998834 0.000176 -2.311394 61.326479 3.002084 -41.934513 118.267635 43.351419 -0.000001 -0.000000 0.000000 13.549318 11.741000 -0.652501 -0.000003 -0.000012 3.000001 -5.000158 7.998733 -0.000159 3.967212 -178.002789 2.766891 -179.999991 0.000005 -1.291993 170.617101 -0.563360 -0.677093 -0.000007 0.000002 0.101226 68.469955 6.951129 2.022167 25.455968 -7.352628 -0.001360 3.690176 174.254860 -3.066947 -0.000005 -0.000004 -1.224981 -6.588468 2.725965 0.325105 -0.000002 -0.000002 -0.079487 68.764125 -6.923775 -2.051519 25.456953 7.342462 -0.000003 
53.057098 -3.997627 96.706085 -6.273111 0.418796 1.896666 -0.500024 -0.195821 -0.282820 2.978637 -0.382736 -0.555449 4.623686 -0.389372 -0.550660 23.339668 4.738509 -4.431300 17.236209 -8.999751 -1.982148 -19.986069 -77.359085 -23.487214 98.313149 -67.900768 99.311511 -0.000002 -0.000001 -0.000000 17.444527 -15.306102 1.631302 0.000002 0.000027 -3.000000 -5.000223 -7.998835 0.000176 -2.285532 61.316999 2.971054 -41.939981 118.269684 43.376250 -0.000000 0.000000 0.000000 13.600058 11.749472 -0.657734 -0.000002 -0.000012 3.000000 -5.000157 7.998732 -0.000159 3.899821 -178.011600 2.739831 -179.999991 0.000005 -1.291993 170.551873 -0.537610 -0.678467 -0.000007 0.000002 0.101070 68.461643 6.951169 2.022199 25.453530 -7.352612 -0.005056 3.639230 174.264518 -3.050695 -0.000005 -0.000004 -1.224560 -6.639997 2.720376 0.327296 -0.000002 -0.000002 -0.080527 68.774541 -6.923701 -2.051555 25.456953 7.342461 -0.000004 
53.053001 -3.982775 96.702492 -6.253281 0.413756 1.882037 -0.498025 -0.195563 -0.282820 2.984497 -0.383086 -0.557071 4.629557 -0.389739 -0.552290 23.207552 4.722034 -4.345761 17.117064 -8.888089 -1.940359 -19.977337 -77.353518 -23.477903 98.379279 -67.869295 99.427945 -0.000001 -0.000001 -0.000000 17.366224 -15.271224 1.614676 0.000004 0.000027 -3.000001 -5.000219 -7.998833 0.000176 -2.258275 61.306760 2.938311 -41.944779 118.271487 43.401098 -0.000002 0.000000 0.000000 13.651939 11.758266 -0.663118 -0.000002 -0.000012 2.999999 -5.000159 7.998733 -0.000159 3.832178 -178.020425 2.712763 -179.999991 0.000005 -1.291994 170.485811 -0.511855 -0.680785 -0.000007 0.000002 0.100923 68.453740 6.951165 2.022194 25.449794 -7.352599 -0.010565 3.589238 174.275173 -3.034734 -0.000005 -0.000004 -1.224180 -6.690285 2.715054 0.329406 -0.000001 -0.000002 -0.081537 68.784349 -6.923695 -2.051440 25.456957 7.342463 -0.000004 
53.053799 -3.977636 96.702904 -6.233608 0.408714 1.867503 -0.496034 -0.195250 -0.282819 2.990397 -0.383367 -0.558711 4.635457 -0.390040 -0.553941 23.075215 4.704636 -4.260185 16.997988 -8.776981 -1.897823 -19.969593 -77.348402 -23.469650 98.443728 -67.837261 99.543075 -0.000001 -0.000001 -0.000001 17.287226 -15.236250 1.598044 0.000002 0.000026 -3.000001 -5.000226 -7.998834 0.000176 -2.229993 61.295907 2.904329 -41.949079 118.273099 43.425943 0.000000 0.000000 -0.000000 13.704561 11.767399 -0.668643 -0.000003 -0.000012 3.000000 -5.000159 7.998734 -0.000160 3.764369 -178.029250 2.685679 -179.999991 0.000005 -1.291993 170.419162 -0.486122 -0.683050 -0.000007 0.000002 0.100783 68.445954 6.951203 2.022193 25.445248 -7.352587 -0.017333 3.539954 174.284844 -3.019093 -0.000004 -0.000004 -1.223810 -6.739693 2.709921 0.331458 -0.000002 -0.000002 -0.082525 68.793611 -6.923655 -2.051551 25.456957 7.342462 -0.000004 
53.052597 -3.960463 96.697296 -6.214007 0.403667 1.853012 -0.494048 -0.194905 -0.282819 2.996307 -0.383611 -0.560363 4.641368 -0.390303 -0.555604 22.942763 4.686542 -4.174615 16.878975 -8.666272 -1.854677 -19.962741 -77.343751 -23.462344 98.507454 -67.805125 99.657726 0.000000 -0.000000 -0.000000 17.207950 -15.201242 1.581481 0.000002 0.000027 -3.000001 -5.000222 -7.998834 0.000177 -2.201171 61.284781 2.869682 -41.951988 118.275394 43.449483 -0.000002 -0.000001 -0.000000 13.757800 11.776582 -0.674258 -0.000001 -0.000011 3.000000 -5.000157 7.998731 -0.000159 3.696452 -178.038088 2.658614 -179.999991 0.000005 -1.291994 170.352185 -0.460398 -0.684262 -0.000007 0.000002 0.100647 68.438373 6.951215 2.022172 25.440295 -7.352559 -0.024820 3.491058 174.295527 -3.003547 -0.000005 -0.000003 -1.223460 -6.788609 2.704881 0.333471 -0.000002 -0.000002 -0.083502 68.802688 -6.923671 -2.051586 25.456955 7.342464 -0.000004 
53.052502 -3.953585 96.696800 -6.194432 0.398611 1.838533 -0.492067 -0.194552 -0.282819 3.002218 -0.383844 -0.562018 4.647277 -0.390556 -0.557270 22.810202 4.668001 -4.089128 16.760130 -8.555817 -1.811034 -19.955945 -77.339099 -23.455107 98.570387 -67.772805 99.771640 -0.000002 -0.000000 -0.000000 17.128600 -15.166179 1.565007 0.000002 0.000027 -3.000001 -5.000222 -7.998834 0.000175 -2.172238 61.273538 2.834892 -41.956114 118.276952 43.474482 -0.000001 -0.000001 -0.000000 13.811051 11.785849 -0.679895 -0.000001 -0.000012 3.000000 -5.000162 7.998733 -0.000158 3.628509 -178.046926 2.631568 -179.999991 0.000005 -1.291994 170.285126 -0.434683 -0.686411 -0.000007 0.000002 0.100512 68.430791 6.951228 2.022151 25.435143 -7.352534 -0.032488 3.442265 174.305226 -2.988120 -0.000005 -0.000003 -1.223100 -6.837396 2.699870 0.335471 -0.000001 -0.000002 -0.084474 68.811752 -6.923612 -2.051708 25.456950 7.342464 -0.000003 
